<svg xmlns="http://www.w3.org/2000/svg" version="1.1" xmlns:xlink="http://www.w3.org/1999/xlink" xmlns:svgjs="http://svgjs.dev/svgjs" viewBox="0 0 8.367271062795062 3.0070563024597474"><g transform="matrix(1,0,0,1,2.9923465369364566,0.9807781512298738)"><rect width="8.367271062795062" height="8.367271062795062" x="-2.992346536936456" y="-3.660885531397531" fill="#ffffff"></rect><g><path d=" M 0.2625 1.1099999999999999 Q 0.14400000000000002 1.1099999999999999 0.096 1.0394999999999999 Q 0.0795 1.017 0.0795 0.9809999999999999 Q 0.0795 0.9404999999999999 0.105 0.9104999999999999 Q 0.135 0.8759999999999999 0.18 0.8759999999999999 Q 0.21 0.8759999999999999 0.228 0.8969999999999999 Q 0.2445 0.9134999999999999 0.2445 0.9419999999999998 Q 0.2445 0.9779999999999999 0.219 1.0005 Q 0.1935 1.0214999999999999 0.165 1.0214999999999999 Q 0.1395 1.0214999999999999 0.11850000000000001 1.0034999999999998 Q 0.14400000000000002 1.0604999999999998 0.21 1.0604999999999998 Q 0.3645 1.0604999999999998 0.4995 0.8594999999999999 Q 0.534 0.8099999999999998 0.5670000000000001 0.7552499999999999 Q 0.6 0.7004999999999999 0.633 0.6404999999999998 Q 0.663 0.5834999999999999 0.6930000000000001 0.5264999999999999 Q 0.723 0.4694999999999998 0.753 0.41249999999999987 Q 0.876 0.17999999999999983 1.0245 0.13649999999999984 Q 0.9675 0.1289999999999999 0.91125 0.11999999999999988 Q 0.855 0.11099999999999988 0.798 0.10199999999999987 Q 0.7305 0.0914999999999998 0.67425 0.08699999999999986 Q 0.618 0.0824999999999999 0.5745 0.0824999999999999 Q 0.3975 0.0824999999999999 0.28800000000000003 0.1559999999999998 Q 0.225 0.19799999999999984 0.1875 0.2579999999999999 Q 0.1485 0.3194999999999999 0.1485 0.37649999999999983 Q 0.1485 0.5084999999999998 0.3255 0.5084999999999998 Q 0.3855 0.5084999999999998 0.4455 0.48524999999999985 Q 0.5055000000000001 0.46199999999999986 0.5685 0.41849999999999987 Q 0.621 0.37949999999999984 0.666 0.3307499999999999 Q 0.711 0.2819999999999998 0.7455 0.22199999999999986 Q 0.753 0.20999999999999985 0.765 0.20999999999999985 Q 0.783 0.20999999999999985 0.7755 0.2234999999999998 Q 0.7455 0.29249999999999987 0.7020000000000001 0.3487499999999999 Q 0.6585 0.4049999999999999 0.6 0.4484999999999999 Q 0.48 0.5354999999999999 0.3345 0.5354999999999999 Q 0.27 0.5354999999999999 0.219 0.5182499999999999 Q 0.168 0.5009999999999999 0.1335 0.46499999999999986 Q 0.0765 0.4049999999999999 0.0765 0.32099999999999984 Q 0.0765 0.24749999999999983 0.1215 0.17849999999999988 Q 0.1665 0.10799999999999987 0.249 0.06599999999999984 Q 0.384 -2.220446049250313e-16 0.5475 -2.220446049250313e-16 Q 0.606 -2.220446049250313e-16 0.6885 0.010499999999999954 Q 0.771 0.020999999999999908 0.8775000000000001 0.041999999999999815 Q 1.02 0.0704999999999999 1.1115 0.08399999999999985 Q 1.203 0.09749999999999981 1.2435 0.09749999999999981 Q 1.332 0.09749999999999981 1.3860000000000001 0.06599999999999984 Q 1.395 0.06149999999999989 1.401 0.06149999999999989 Q 1.41 0.06149999999999989 1.41 0.0734999999999999 Q 1.41 0.08399999999999985 1.3980000000000001 0.0914999999999998 Q 1.299 0.1589999999999998 1.1475 0.1499999999999998 L 1.0995 0.14549999999999985 Q 0.9555 0.1619999999999998 0.861 0.39449999999999985 Q 0.735 0.7019999999999998 0.711 0.7484999999999999 Q 0.6105 0.9434999999999999 0.47250000000000003 1.0425 Q 0.378 1.1099999999999999 0.2625 1.1099999999999999 M 1.33949267578125 1.0484999999999998 Q 1.30649267578125 1.0484999999999998 1.28549267578125 1.029 Q 1.25549267578125 1.0034999999999998 1.25549267578125 0.9434999999999999 Q 1.25549267578125 0.9044999999999999 1.26899267578125 0.8549999999999999 Q 1.21799267578125 0.9404999999999999 1.16249267578125 0.9944999999999998 Q 1.10549267578125 1.047 1.06049267578125 1.047 Q 1.02149267578125 1.047 0.99899267578125 1.0125 Q 0.97499267578125 0.9794999999999998 0.97499267578125 0.9209999999999998 Q 0.97499267578125 0.7784999999999999 1.10249267578125 0.6269999999999999 Q 1.12349267578125 0.6014999999999999 1.15049267578125 0.5804999999999998 Q 1.17749267578125 0.5594999999999999 1.20899267578125 0.5429999999999998 Q 1.2734926757812501 0.5099999999999999 1.33349267578125 0.5099999999999999 Q 1.40699267578125 0.5099999999999999 1.45049267578125 0.5579999999999998 Q 1.4609926757812501 0.5684999999999998 1.4609926757812501 0.5819999999999999 Q 1.4609926757812501 0.6074999999999999 1.43399267578125 0.6014999999999999 Q 1.4189926757812499 0.5474999999999999 1.36349267578125 0.5474999999999999 Q 1.30049267578125 0.5474999999999999 1.2149926757812501 0.6359999999999999 Q 1.18499267578125 0.6689999999999998 1.15799267578125 0.7042499999999998 Q 1.13099267578125 0.7394999999999998 1.10699267578125 0.7784999999999999 Q 1.04249267578125 0.8864999999999998 1.04249267578125 0.9539999999999998 Q 1.04249267578125 1.005 1.08149267578125 1.005 Q 1.12499267578125 1.005 1.18199267578125 0.9389999999999998 Q 1.21349267578125 0.9029999999999998 1.24649267578125 0.8504999999999998 Q 1.27949267578125 0.7979999999999998 1.31549267578125 0.7289999999999999 Q 1.33049267578125 0.7004999999999999 1.34249267578125 0.6824999999999999 Q 1.35449267578125 0.6644999999999999 1.36199267578125 0.6554999999999999 Q 1.38599267578125 0.6314999999999998 1.4189926757812499 0.6329999999999998 L 1.4489926757812501 0.6374999999999998 Q 1.46849267578125 0.6419999999999999 1.48199267578125 0.6389999999999998 Q 1.46849267578125 0.6524999999999999 1.4497426757812502 0.6817499999999999 Q 1.43099267578125 0.7109999999999999 1.40699267578125 0.7574999999999998 Q 1.38149267578125 0.8069999999999998 1.36499267578125 0.8474999999999999 Q 1.3484926757812499 0.8879999999999999 1.34249267578125 0.9194999999999999 Q 1.33949267578125 0.9344999999999999 1.33799267578125 0.9472499999999999 Q 1.33649267578125 0.9599999999999999 1.33649267578125 0.9704999999999999 Q 1.33649267578125 1.0094999999999998 1.35749267578125 1.0094999999999998 Q 1.38749267578125 1.0094999999999998 1.43999267578125 0.9434999999999999 L 1.44599267578125 0.9359999999999998 L 1.46699267578125 0.9494999999999999 L 1.4609926757812501 0.9584999999999999 Q 1.39949267578125 1.0484999999999998 1.33949267578125 1.0484999999999998 M 1.558449462890625 1.0454999999999999 Q 1.514949462890625 1.0454999999999999 1.514949462890625 1.0019999999999998 Q 1.514949462890625 0.9749999999999999 1.532949462890625 0.9284999999999999 L 1.823949462890625 0.1844999999999999 Q 1.8269494628906249 0.17999999999999983 1.8269494628906249 0.17549999999999988 Q 1.8269494628906249 0.17099999999999982 1.8269494628906249 0.16799999999999982 Q 1.8269494628906249 0.14549999999999985 1.808949462890625 0.12149999999999983 L 1.889949462890625 0.12149999999999983 Q 1.931949462890625 0.12149999999999983 1.931949462890625 0.1409999999999999 Q 1.931949462890625 0.1499999999999998 1.922949462890625 0.17249999999999988 L 1.631949462890625 0.9134999999999999 Q 1.612449462890625 0.9614999999999999 1.612449462890625 0.9989999999999999 Q 1.612449462890625 1.0334999999999999 1.633449462890625 1.0454999999999999 L 1.558449462890625 1.0454999999999999 M 1.72943115234375 1.0559999999999998 Q 1.78043115234375 0.9389999999999998 1.87568115234375 0.7207499999999999 Q 1.97093115234375 0.5024999999999998 2.11193115234375 0.1844999999999999 Q 2.11343115234375 0.17999999999999983 2.11418115234375 0.17549999999999988 Q 2.11493115234375 0.17099999999999982 2.11493115234375 0.16649999999999987 Q 2.11493115234375 0.14549999999999985 2.09693115234375 0.12149999999999983 L 2.17793115234375 0.12149999999999983 Q 2.21993115234375 0.12149999999999983 2.21993115234375 0.1409999999999999 Q 2.21993115234375 0.15149999999999986 2.21093115234375 0.17249999999999988 L 1.94693115234375 0.7784999999999999 Q 1.97543115234375 0.7379999999999999 2.06843115234375 0.6554999999999999 Q 2.15843115234375 0.5759999999999998 2.19743115234375 0.5639999999999998 Q 2.21393115234375 0.5594999999999999 2.22893115234375 0.5594999999999999 Q 2.2859311523437498 0.5594999999999999 2.2859311523437498 0.6194999999999999 Q 2.2859311523437498 0.6344999999999998 2.27843115234375 0.6569999999999998 Q 2.26943115234375 0.6854999999999999 2.23793115234375 0.7109999999999999 Q 2.20643115234375 0.7379999999999999 2.17943115234375 0.7379999999999999 Q 2.15693115234375 0.7379999999999999 2.14643115234375 0.7184999999999999 Q 2.16293115234375 0.6929999999999998 2.16293115234375 0.6809999999999998 Q 2.16293115234375 0.6704999999999999 2.15243115234375 0.6629999999999998 Q 2.14343115234375 0.6584999999999999 2.13143115234375 0.6584999999999999 Q 2.10293115234375 0.6584999999999999 2.07743115234375 0.69 Q 2.04143115234375 0.7349999999999999 2.04143115234375 0.8159999999999998 Q 2.04143115234375 0.8834999999999998 2.07443115234375 0.9389999999999998 Q 2.11343115234375 1.005 2.17343115234375 1.005 Q 2.23343115234375 1.005 2.28893115234375 0.9269999999999998 L 2.30993115234375 0.9449999999999998 Q 2.23043115234375 1.0559999999999998 2.1344311523437502 1.0559999999999998 Q 2.12843115234375 1.0559999999999998 2.12093115234375 1.0559999999999998 Q 2.11343115234375 1.0559999999999998 2.10593115234375 1.0544999999999998 Q 2.0639311523437502 1.0499999999999998 2.02493115234375 1.0065 Q 1.97543115234375 0.9524999999999999 1.97543115234375 0.8699999999999999 Q 1.97543115234375 0.8084999999999999 2.00993115234375 0.7499999999999999 Q 1.90943115234375 0.8459999999999999 1.83293115234375 1.0245 Q 1.82393115234375 1.047 1.78043115234375 1.047 Q 1.76393115234375 1.047 1.72943115234375 1.0559999999999998 M 2.83494873046875 1.1099999999999999 Q 2.71644873046875 1.1099999999999999 2.66844873046875 1.0394999999999999 Q 2.65194873046875 1.017 2.65194873046875 0.9809999999999999 Q 2.65194873046875 0.9404999999999999 2.67744873046875 0.9104999999999999 Q 2.70744873046875 0.8759999999999999 2.75244873046875 0.8759999999999999 Q 2.78244873046875 0.8759999999999999 2.80044873046875 0.8969999999999999 Q 2.81694873046875 0.9134999999999999 2.81694873046875 0.9419999999999998 Q 2.81694873046875 0.9779999999999999 2.79144873046875 1.0005 Q 2.7659487304687502 1.0214999999999999 2.73744873046875 1.0214999999999999 Q 2.71194873046875 1.0214999999999999 2.69094873046875 1.0034999999999998 Q 2.71644873046875 1.0604999999999998 2.78244873046875 1.0604999999999998 Q 2.93694873046875 1.0604999999999998 3.07194873046875 0.8594999999999999 Q 3.10644873046875 0.8099999999999998 3.13944873046875 0.7552499999999999 Q 3.17244873046875 0.7004999999999999 3.20544873046875 0.6404999999999998 Q 3.2354487304687503 0.5834999999999999 3.26544873046875 0.5264999999999999 Q 3.29544873046875 0.4694999999999998 3.32544873046875 0.41249999999999987 Q 3.44844873046875 0.17999999999999983 3.5969487304687497 0.13649999999999984 Q 3.5399487304687502 0.1289999999999999 3.48369873046875 0.11999999999999988 Q 3.42744873046875 0.11099999999999988 3.37044873046875 0.10199999999999987 Q 3.30294873046875 0.0914999999999998 3.24669873046875 0.08699999999999986 Q 3.19044873046875 0.0824999999999999 3.14694873046875 0.0824999999999999 Q 2.96994873046875 0.0824999999999999 2.8604487304687503 0.1559999999999998 Q 2.79744873046875 0.19799999999999984 2.75994873046875 0.2579999999999999 Q 2.72094873046875 0.3194999999999999 2.72094873046875 0.37649999999999983 Q 2.72094873046875 0.5084999999999998 2.89794873046875 0.5084999999999998 Q 2.95794873046875 0.5084999999999998 3.01794873046875 0.48524999999999985 Q 3.07794873046875 0.46199999999999986 3.1409487304687502 0.41849999999999987 Q 3.19344873046875 0.37949999999999984 3.23844873046875 0.3307499999999999 Q 3.28344873046875 0.2819999999999998 3.31794873046875 0.22199999999999986 Q 3.32544873046875 0.20999999999999985 3.33744873046875 0.20999999999999985 Q 3.35544873046875 0.20999999999999985 3.34794873046875 0.2234999999999998 Q 3.31794873046875 0.29249999999999987 3.27444873046875 0.3487499999999999 Q 3.23094873046875 0.4049999999999999 3.17244873046875 0.4484999999999999 Q 3.05244873046875 0.5354999999999999 2.9069487304687502 0.5354999999999999 Q 2.84244873046875 0.5354999999999999 2.79144873046875 0.5182499999999999 Q 2.74044873046875 0.5009999999999999 2.70594873046875 0.46499999999999986 Q 2.64894873046875 0.4049999999999999 2.64894873046875 0.32099999999999984 Q 2.64894873046875 0.24749999999999983 2.69394873046875 0.17849999999999988 Q 2.73894873046875 0.10799999999999987 2.82144873046875 0.06599999999999984 Q 2.95644873046875 -2.220446049250313e-16 3.11994873046875 -2.220446049250313e-16 Q 3.17844873046875 -2.220446049250313e-16 3.26094873046875 0.010499999999999954 Q 3.34344873046875 0.020999999999999908 3.44994873046875 0.041999999999999815 Q 3.59244873046875 0.0704999999999999 3.68394873046875 0.08399999999999985 Q 3.7754487304687503 0.09749999999999981 3.81594873046875 0.09749999999999981 Q 3.90444873046875 0.09749999999999981 3.95844873046875 0.06599999999999984 Q 3.96744873046875 0.06149999999999989 3.97344873046875 0.06149999999999989 Q 3.98244873046875 0.06149999999999989 3.98244873046875 0.0734999999999999 Q 3.98244873046875 0.08399999999999985 3.97044873046875 0.0914999999999998 Q 3.87144873046875 0.1589999999999998 3.71994873046875 0.1499999999999998 L 3.67194873046875 0.14549999999999985 Q 3.52794873046875 0.1619999999999998 3.4334487304687498 0.39449999999999985 Q 3.30744873046875 0.7019999999999998 3.28344873046875 0.7484999999999999 Q 3.18294873046875 0.9434999999999999 3.04494873046875 1.0425 Q 2.95044873046875 1.1099999999999999 2.83494873046875 1.1099999999999999 M 3.78894140625 0.46499999999999986 Q 3.73794140625 0.46499999999999986 3.73794140625 0.41549999999999987 Q 3.73794140625 0.3659999999999999 3.78594140625 0.3659999999999999 Q 3.8369414062500002 0.3659999999999999 3.8369414062500002 0.41549999999999987 Q 3.8369414062500002 0.46499999999999986 3.78894140625 0.46499999999999986 M 3.58494140625 1.0454999999999999 Q 3.54144140625 1.0454999999999999 3.54144140625 1.0019999999999998 Q 3.54144140625 0.9749999999999999 3.55944140625 0.9284999999999999 Q 3.59844140625 0.8324999999999999 3.63294140625 0.7514999999999998 Q 3.66744140625 0.6704999999999999 3.69744140625 0.6044999999999998 Q 3.70194140625 0.5969999999999999 3.70194140625 0.5879999999999999 Q 3.70194140625 0.5669999999999998 3.68244140625 0.5429999999999998 L 3.76494140625 0.5414999999999999 Q 3.80694140625 0.5414999999999999 3.80694140625 0.5624999999999999 Q 3.80694140625 0.5684999999999998 3.80394140625 0.5752499999999998 Q 3.8009414062499998 0.5819999999999999 3.79644140625 0.5939999999999999 L 3.65844140625 0.9134999999999999 Q 3.63744140625 0.9629999999999999 3.63744140625 0.9974999999999998 Q 3.63744140625 1.0334999999999999 3.65994140625 1.0454999999999999 L 3.58494140625 1.0454999999999999 M 3.77543701171875 1.0559999999999998 Q 3.80543701171875 0.9824999999999999 3.85043701171875 0.8744999999999998 Q 3.89543701171875 0.7664999999999998 3.95993701171875 0.6255 Q 3.97343701171875 0.5954999999999999 3.98543701171875 0.5759999999999998 Q 3.99743701171875 0.5564999999999999 4.00793701171875 0.5459999999999998 Q 4.02893701171875 0.5249999999999999 4.06193701171875 0.5249999999999999 Q 4.06493701171875 0.5249999999999999 4.07243701171875 0.5249999999999999 Q 4.07993701171875 0.5249999999999999 4.09343701171875 0.5279999999999999 Q 4.11443701171875 0.5294999999999999 4.12493701171875 0.5279999999999999 Q 4.06943701171875 0.5609999999999999 3.95843701171875 0.8189999999999998 Q 3.97493701171875 0.7979999999999998 4.00043701171875 0.7657499999999999 Q 4.02593701171875 0.7334999999999998 4.06643701171875 0.6944999999999999 Q 4.10843701171875 0.6539999999999999 4.13543701171875 0.6314999999999998 Q 4.16243701171875 0.6089999999999999 4.17293701171875 0.6014999999999999 Q 4.23893701171875 0.5519999999999998 4.27043701171875 0.5519999999999998 Q 4.31393701171875 0.5519999999999998 4.31393701171875 0.5939999999999999 Q 4.31393701171875 0.6074999999999999 4.30793701171875 0.6194999999999999 Q 4.28993701171875 0.6539999999999999 4.26218701171875 0.7064999999999999 Q 4.23443701171875 0.7589999999999999 4.19843701171875 0.8294999999999999 Q 4.27043701171875 0.7394999999999998 4.32293701171875 0.6929999999999998 Q 4.34993701171875 0.6689999999999998 4.38368701171875 0.6464999999999999 Q 4.41743701171875 0.6239999999999999 4.45643701171875 0.6014999999999999 Q 4.54193701171875 0.5519999999999998 4.58543701171875 0.5519999999999998 Q 4.59593701171875 0.5519999999999998 4.60043701171875 0.5534999999999999 Q 4.57643701171875 0.5954999999999999 4.55618701171875 0.6344999999999998 Q 4.53593701171875 0.6734999999999999 4.51793701171875 0.7079999999999999 Q 4.4759370117187505 0.7904999999999999 4.45193701171875 0.8489999999999999 Q 4.42793701171875 0.9074999999999999 4.42043701171875 0.9404999999999999 Q 4.41893701171875 0.9509999999999998 4.41818701171875 0.9599999999999999 Q 4.41743701171875 0.9689999999999999 4.41743701171875 0.9764999999999999 Q 4.41743701171875 1.0154999999999998 4.44593701171875 1.0154999999999998 Q 4.49243701171875 1.0154999999999998 4.55693701171875 0.9209999999999998 L 4.57793701171875 0.9359999999999998 Q 4.50143701171875 1.0514999999999999 4.42493701171875 1.0514999999999999 Q 4.33043701171875 1.0514999999999999 4.33043701171875 0.9539999999999998 Q 4.33043701171875 0.8729999999999999 4.42643701171875 0.7184999999999999 Q 4.44143701171875 0.6944999999999999 4.44143701171875 0.6779999999999999 Q 4.44143701171875 0.6599999999999999 4.42643701171875 0.6599999999999999 Q 4.40993701171875 0.6599999999999999 4.3829370117187505 0.6772499999999999 Q 4.35593701171875 0.6944999999999999 4.32143701171875 0.7259999999999999 Q 4.29293701171875 0.7529999999999999 4.26218701171875 0.7904999999999999 Q 4.23143701171875 0.8279999999999998 4.19693701171875 0.8759999999999999 Q 4.12193701171875 0.9854999999999998 4.10843701171875 1.0454999999999999 Q 4.08293701171875 1.0454999999999999 4.06943701171875 1.0214999999999999 Q 4.05893701171875 1.0005 4.05893701171875 0.9794999999999998 Q 4.05893701171875 0.9494999999999999 4.07993701171875 0.8999999999999999 Q 4.1009370117187505 0.8504999999999998 4.13843701171875 0.7799999999999998 Q 4.18193701171875 0.7019999999999998 4.18193701171875 0.6674999999999999 Q 4.18193701171875 0.6524999999999999 4.16993701171875 0.6524999999999999 Q 4.14593701171875 0.6524999999999999 4.06343701171875 0.7274999999999998 Q 4.04243701171875 0.7469999999999999 4.01918701171875 0.7762499999999999 Q 3.99593701171875 0.8054999999999999 3.97043701171875 0.8444999999999998 Q 3.91193701171875 0.9314999999999999 3.88043701171875 1.0185 Q 3.87143701171875 1.041 3.83393701171875 1.0454999999999999 Q 3.78593701171875 1.0499999999999998 3.77543701171875 1.0559999999999998 M 4.757904052734375 1.0514999999999999 Q 4.699404052734375 1.0514999999999999 4.657404052734375 1.0139999999999998 Q 4.634904052734375 0.9929999999999999 4.625154052734375 0.9652499999999998 Q 4.615404052734375 0.9374999999999999 4.615404052734375 0.9014999999999999 Q 4.615404052734375 0.7634999999999998 4.729404052734375 0.6269999999999999 Q 4.825404052734375 0.5114999999999998 4.928904052734375 0.5114999999999998 Q 4.963404052734375 0.5114999999999998 4.987404052734375 0.5294999999999999 Q 5.012904052734375 0.5504999999999999 5.012904052734375 0.5834999999999999 Q 5.012904052734375 0.6659999999999999 4.903404052734375 0.7484999999999999 Q 4.868904052734375 0.7739999999999998 4.811904052734375 0.7934999999999999 Q 4.748904052734375 0.8144999999999999 4.720404052734375 0.8144999999999999 Q 4.699404052734375 0.8654999999999999 4.699404052734375 0.9224999999999999 Q 4.699404052734375 1.0199999999999998 4.771404052734375 1.0199999999999998 Q 4.865904052734375 1.0199999999999998 4.948404052734375 0.8969999999999999 L 4.954404052734375 0.8879999999999999 L 4.979904052734375 0.8984999999999999 L 4.975404052734375 0.9074999999999999 Q 4.937904052734375 0.9824999999999999 4.880904052734375 1.017 Q 4.823904052734375 1.0514999999999999 4.757904052734375 1.0514999999999999 M 4.729404052734375 0.7889999999999999 Q 4.754904052734375 0.7889999999999999 4.799904052734375 0.7724999999999999 Q 4.825404052734375 0.7619999999999998 4.848654052734375 0.7499999999999999 Q 4.871904052734375 0.7379999999999999 4.889904052734375 0.7229999999999999 Q 4.972404052734375 0.6539999999999999 4.972404052734375 0.5774999999999999 Q 4.972404052734375 0.5444999999999999 4.948404052734375 0.5444999999999999 Q 4.906404052734375 0.5444999999999999 4.820904052734375 0.6479999999999999 Q 4.777404052734375 0.7004999999999999 4.729404052734375 0.7889999999999999" fill="#1c3423" fill-rule="nonzero"></path></g><g></g><g clip-path="url(#SvgjsClipPath1003)"><g clip-path="url(#SvgjsClipPath1001024b2c39-0750-405b-ae1f-5c2caf10a227)"><path d=" M -1.353504044140776 0.0001587912119312973 L -2.4569493532459252 0.0001587912119312973 C -2.5313601034153677 0.13803357866488097 -2.575155596667641 0.2903366857995735 -2.585348036468476 0.44667775822419753 L -1.1880178480331616 0.44667775822419753 C -1.2016940967517211 0.28559116927880857 -1.2588949088575268 0.1312505164962835 -1.353504044140776 0.0001587912119312973 Z" fill="#adadad" transform="matrix(1,0,0,1,0,0)" fill-rule="nonzero"></path></g><g clip-path="url(#SvgjsClipPath1001024b2c39-0750-405b-ae1f-5c2caf10a227)"><path d=" M -2.3477676321453367 -0.16287938424320442 L -1.50381251220302 -0.16287938424320442 C -1.6652442379054873 -0.29975280860707904 -1.8700205893694575 -0.37487940058665864 -2.0816677872208142 -0.3748779727479311 C -2.095988708037819 -0.3748779727479311 -2.1100648267895754 -0.3734091603564432 -2.1243857476065813 -0.3726747541607001 C -2.2082067792132456 -0.3134302259646082 -2.2833866620617096 -0.24282292777158526 -2.3477676321453367 -0.16287938424320442 Z" fill="#adadad" transform="matrix(1,0,0,1,0,0)" fill-rule="nonzero"></path></g><g clip-path="url(#SvgjsClipPath1001024b2c39-0750-405b-ae1f-5c2caf10a227)"><path d=" M -2.339689163992156 1.219150675114114 C -2.277115658696773 1.294759001661118 -2.204705162796272 1.3616532915066624 -2.1243857476065813 1.4180523531280733 C -2.1100648267895754 1.4187867593238193 -2.095988708037819 1.4202555717153071 -2.0816677872208142 1.4202555717153071 C -1.8758311929785645 1.420285736656516 -1.6762962833045694 1.349248714642568 -1.5167870216611625 1.219150675114114 Z" fill="#adadad" transform="matrix(1,0,0,1,0,0)" fill-rule="nonzero"></path></g><g clip-path="url(#SvgjsClipPath1001024b2c39-0750-405b-ae1f-5c2caf10a227)"><path d=" M -1.3339198789209403 -0.16287938424320442 L -0.6375804043231375 -0.16287938424320442 C -0.8454022208839398 -0.42282086987040896 -1.1602358523008016 -0.57404372015892 -1.4930412213321096 -0.5737796507618934 C -1.6447668786991467 -0.5738641344906336 -1.7948427744492221 -0.5423065086342994 -1.9336849387784245 -0.4811220690655429 C -1.7031191668062875 -0.4471557798953094 -1.4913043642825552 -0.33476425202557314 -1.3339198789209403 -0.16287938424320442 Z" fill="#636b63" transform="matrix(1,0,0,1,0,0)" fill-rule="nonzero"></path></g><g clip-path="url(#SvgjsClipPath1001024b2c39-0750-405b-ae1f-5c2caf10a227)"><path d=" M -1.3439567635961074 1.219150675114114 C -1.5001078287184546 1.3849828050350488 -1.7076201871590122 1.493310120995706 -1.9329505325826815 1.5266220690655423 C -1.7941004124113016 1.5877678752749853 -1.6440241491846257 1.6192838905525861 -1.4923068151363663 1.6191572497292697 C -1.1642894219513822 1.619496230331836 -0.8534162750301291 1.4726850389823198 -0.6452916693784507 1.219150675114114 Z" fill="#636b63" transform="matrix(1,0,0,1,0,0)" fill-rule="nonzero"></path></g><g clip-path="url(#SvgjsClipPath1001024b2c39-0750-405b-ae1f-5c2caf10a227)"><path d=" M -1.212130851460084 0.0001587912119312973 C -1.1301461108055613 0.13570515158049556 -1.08132975222662 0.28869662588975575 -1.0696560494857779 0.44667775822419753 L -0.4001224010326254 0.44667775822419753 C -0.41031484083345937 0.2903366857995735 -0.4541103340857342 0.13803357866488097 -0.5285210842551762 0.0001587912119312973 Z" fill="#adadad" transform="matrix(1,0,0,1,0,0)" fill-rule="nonzero"></path></g><g clip-path="url(#SvgjsClipPath1001024b2c39-0750-405b-ae1f-5c2caf10a227)"><path d=" M -0.4007344061957441 0.6097159336793349 L -1.0701456536162701 0.6097159336793349 C -1.0836790666581004 0.7681540474138925 -1.134559590137649 0.9211311860205865 -1.2186181061891537 1.0561124996589766 L -0.5352531410494921 1.0561124996589766 C -0.45858785940072977 0.9188227459573922 -0.41268821003374967 0.766506075128112 -0.4007344061957441 0.6097159336793333 Z" fill="#adadad" transform="matrix(1,0,0,1,0,0)" fill-rule="nonzero"></path></g><g clip-path="url(#SvgjsClipPath1001024b2c39-0750-405b-ae1f-5c2caf10a227)"><path d=" M -2.5848584323379806 0.6097159336793349 C -2.572694067124755 0.7664831024340609 -2.5267634371587513 0.9187640183304412 -2.4502172964516054 1.0561124996589766 L -1.3608481060982152 1.0561124996589766 C -1.2636232586091976 0.9258281831499867 -1.2037832844849525 0.7714884479087433 -1.1877730459679108 0.6097159336793333 Z" fill="#adadad" transform="matrix(1,0,0,1,0,0)" fill-rule="nonzero"></path></g></g></g><defs><clipPath id="SvgjsClipPath1003"><path d=" M -2.585348036468476 -0.5737796507618934 h 2.185348036468476 v 2.1930593015237867 h -2.185348036468476 Z"></path></clipPath><clipPath id="SvgjsClipPath1001024b2c39-0750-405b-ae1f-5c2caf10a227"><path d=" M -2.585348036468476 -0.5737796507618934 L -0.3999999999999999 -0.5737796507618934 L -0.3999999999999999 1.6192796507618934 L -2.585348036468476 1.6192796507618934 Z"></path></clipPath></defs></svg>